<?xml version="1.0" encoding="UTF-8"?>
<svg id="Layer_1" xmlns="http://www.w3.org/2000/svg" version="1.1" viewBox="0 0 432 137.31">
  <defs>
    <style>
      .st0 {
        fill: #6e469b;
      }

      .st1 {
        fill: #e2637a;
      }

      .st2 {
        fill: #7357a4;
      }

      .st3 {
        fill: #ffffff;
      }

      .st4 {
        fill: #c62e88;
      }

      .st5 {
        fill: #5f86c4;
      }

      .st6 {
        fill: #6ea3d7;
      }
    </style>
  </defs>
  <g id="Layer_11" data-name="Layer_1">
    <g>
      <path class="st3" d="M233.12,126.11c-7.12-.17-14.49-4.75-18.33-10.65-.23-.36-1.35-2-1.17-2.28l8.17-4.07c3.59,6.27,9.86,8.77,16.91,7.63,10.33-1.67,12.5-12.29,12.19-21.23l-2.28,2.7c-7.36,6.54-18.56,6.74-26.67,1.39-14.63-9.65-13.92-34.8,1.77-43.08,8.83-4.66,21.12-3.36,27.18,5.1v-6.55h9.95c-.1,15.08.2,30.2-.16,45.25-.81,14.06-8.1,25.35-23.15,25.78-.41.01-1.03-.13-1.3.16h-2.12c-.18-.28-.67-.16-.98-.16h-.01ZM235.04,63.14c-12.68.75-17.82,16.41-10.07,25.72,6.55,7.88,18.86,6.59,23.83-2.26,5.91-10.52-1.49-24.19-13.76-23.47h0Z"/>
      <path class="st3" d="M237.52,126.11v.16h-1.3c.27-.3.89-.15,1.3-.16Z"/>
      <path class="st3" d="M234.1,126.27h-.98v-.16c.31,0,.8-.11.98.16Z"/>
      <path class="st3" d="M291.62,53.98c18.38-1.55,31.52,13.93,26.56,31.9-5.94,21.55-37.1,23.7-46.13,3.51-6.89-15.41,2.31-33.96,19.56-35.41h.01ZM293.58,63.14c-10.22.6-15.87,10.73-13.22,20.21,3.5,12.53,20.35,14.64,26.81,3.42,6.03-10.45-1.11-24.36-13.59-23.63Z"/>
      <path class="st3" d="M177.81,53.98c16.91-1.34,29.39,11.28,27.24,28.33-2.08,16.45-19.54,25.4-34.49,19.12-22.77-9.56-17.85-45.46,7.25-47.45ZM179.61,63.14c-11.06.78-16.7,12.52-12.39,22.32,5.19,11.8,22.24,11.33,27.01-.6,4.16-10.42-2.98-22.53-14.62-21.72Z"/>
      <path class="st3" d="M359.65,68h-9.46c-.35-6.98-12.03-7.8-13.78-1.32-.96,3.54,1.6,5.54,4.62,6.51,4.1,1.31,8.67,1.62,12.6,3.56,9.8,4.84,10.25,17.7,1.02,23.46-10.9,6.81-29.41,2.58-29.72-12.24h8.89c.41.88.42,1.94.87,2.89,3.06,6.47,17.52,5.21,16.66-2.81-.54-5.04-10.37-5.6-14.31-6.91-7.07-2.34-11.96-7.5-10.59-15.47,2.84-16.51,33.48-15.67,33.21,2.33h-.01Z"/>
      <rect class="st3" x="136.92" y="29.54" width="9.78" height="72.67"/>
      <g>
        <path class="st3" d="M386.52,54.68c1.76,0,3.36.24,4.81.69,1.46.44,2.76,1.09,3.81,1.9,1.05.85,1.86,1.82,2.46,2.95.6,1.17.9,2.43.9,3.76,0,1.05-.2,2.02-.55,2.95-.35.93-.9,1.74-1.55,2.51-.7.77-1.5,1.42-2.46,1.94-.95.53-2.06.97-3.21,1.25l8.68,10.52h-7.27l-7.97-9.87h-7.72v9.87h-6.42v-28.49h16.5v.02ZM390.18,67.67c1.15-.89,1.76-2.06,1.76-3.56s-.6-2.67-1.76-3.6c-1.2-.93-2.76-1.38-4.61-1.38h-9.13v9.91h9.13c1.91,0,3.46-.45,4.61-1.38h0Z"/>
        <path class="st3" d="M423.38,54.84h7.42l-11.69,13.8,12.39,14.53h-7.67l-8.93-10.64-8.93,10.64h-7.47l12.39-14.53-11.39-13.8h7.57l8.18,10.08,8.12-10.08h0Z"/>
      </g>
    </g>
  </g>
  <g id="Layer_2">
    <g>
      <polyline class="st2" points="58.26 115.51 2.68 97.1 58.26 3.86"/>
      <polyline class="st6" points="58.26 115.51 113.85 97.1 58.26 3.86"/>
      <polyline class="st4" points="58.26 115.51 9.76 130.45 19.59 102.69"/>
      <polyline class="st1" points="58.26 115.51 106.76 130.45 96.94 102.69"/>
      <polyline class="st0" points="19.59 102.69 58.26 115.51 58.26 3.86"/>
      <polyline class="st5" points="96.94 102.68 58.26 115.51 58.26 3.86"/>
    </g>
  </g>
</svg>
