<?xml version="1.0" encoding="UTF-8"?>
<svg id="Layer_1" xmlns="http://www.w3.org/2000/svg" version="1.1" viewBox="0 0 562.2 186.36">
  <defs>
    <style>
      .st0 { fill: #db0838; }
      .st1 { display: none; fill: #fdfdfd; }
      .st2 { fill: #99daf8; }
      .st3 { fill: #606060; }
      .st4 { isolation: isolate; }
      .st5 { fill: #79c944; }
      .st6 { fill: #db0027; }
      .st7 { fill: #f7f8f8; }
      .st8 { fill: #fff; }
      .st9 { fill: #061e40; }
      .st10 { fill: #56c5ee; }
    </style>
  </defs>
  <g>
    <path class="st7" d="M83.46,7.62c2.62-.3,5.45.15,7.86,1.19l66.18,36.42c3.55,2.31,5.88,6.05,6.26,10.31v72.55c-.33,4.53-2.96,8.49-6.85,10.74-19.63,10.66-39.07,21.69-58.69,32.35-6.32,3.44-11.18,6.98-18.71,3.76-22.51-12.34-45.11-24.57-67.42-37.24-2.96-2.34-4.85-5.83-5.15-9.61V55.53c.4-4.53,3.04-8.52,6.98-10.74L78.1,9.45c1.59-.79,3.59-1.62,5.36-1.82h0ZM158.68,49.13c-2.03-2.32-6.08-4.01-8.79-5.53-16.77-9.34-33.61-18.56-50.45-27.75-2.66-1.45-5.25-3.13-7.95-4.51-8.18-4.19-13.31.74-20.21,4.5-16.84,9.2-33.7,18.39-50.45,27.75-5.33,2.98-11.14,5.07-11.69,12.2v72.03c.46,7.22,6.42,9.34,11.8,12.33,16.88,9.39,33.81,18.69,50.78,27.93,6.78,3.7,11.68,8.41,19.74,4.28,6.08-3.12,12.14-6.8,18.15-10.11,12.16-6.68,24.39-13.24,36.52-19.98,3.21-1.78,6.66-3.58,9.73-5.55,3.34-2.14,5.33-4.81,5.73-8.91V55.92c-.19-2.52-1.26-4.9-2.91-6.79h0Z"/>
    <path class="st9" d="M158.68,49.13c1.65,1.89,2.72,4.27,2.91,6.79v71.91c-.39,4.1-2.38,6.77-5.73,8.91-3.07,1.97-6.52,3.76-9.73,5.55-12.13,6.74-24.36,13.3-36.52,19.98-6.01,3.3-12.06,6.99-18.15,10.11-8.06,4.13-12.96-.59-19.74-4.28-16.97-9.25-33.91-18.54-50.78-27.93-5.38-2.99-11.34-5.12-11.81-12.33V55.8c.55-7.13,6.37-9.22,11.7-12.2,16.75-9.36,33.61-18.55,50.45-27.75,6.89-3.77,12.02-8.69,20.21-4.5,2.7,1.38,5.29,3.05,7.95,4.51,16.85,9.2,33.69,18.41,50.45,27.75,2.72,1.51,6.76,3.2,8.79,5.53h0ZM33.76,47.93l-5.34,3.13c-.15.24-.24.47-.28.75-.14,1.19-.12,4.06,0,5.27.06.6.16.9.66,1.27.95.71,3.37,2.05,4.48,2.58.33.16.56.35.96.33s3.41-1.81,4.01-2.17c.8-.48,1.76-.76,1.85-1.75.12-1.32.15-4.37,0-5.66-.02-.21-.05-.31-.15-.49-.4-.78-4.4-2.44-5.25-3.22-.29-.12-.63-.1-.93-.04h0ZM46.73,47.92c-.59.12-3.57,1.95-4.29,2.39s-1.38.58-1.46,1.49c-.12,1.27-.16,4.57,0,5.79.07.52.52.74.92,1.01,1.04.71,3.27,2.04,4.4,2.54.2.09.46.22.67.22.36,0,3.19-1.69,3.75-2.01,1-.6,2.11-.88,2.23-2.14s.12-3.87,0-5.15c-.06-.63-.12-.8-.6-1.19-.68-.55-4.05-2.5-4.87-2.83-.28-.11-.4-.18-.73-.12h-.02ZM26.95,58.97l-5.34,3.13c-.14.28-.24.57-.27.88-.13,1.21-.12,3.92,0,5.14.06.6.16.9.66,1.27.93.7,3.39,2.06,4.48,2.58.53.25.75.46,1.38.22s4.53-2.49,5.04-2.92c.33-.29.36-.46.4-.89.12-1.32.15-4.37,0-5.66-.06-.47-.23-.67-.6-.94-.65-.47-4.16-2.56-4.8-2.77-.32-.11-.6-.11-.93-.04h-.02ZM105.46,68.38c.09-.53,0-1.46,0-2.05,0-.19-.58-.36-.76-.39-4.2-.83-11.24-.77-9.71,5.47.74,3.04,6.83,4.49,7.34,6.15.87,2.83-2.45,2.66-4.25,2.58-.44-.02-2.76-.56-2.76.06v2.05c0,.47,2.78.8,3.28.83,4.05.26,8.63-1.57,7.12-6.48-.97-3.15-4.97-3.58-6.99-5.46-1.68-1.57.55-2.96,2.19-2.7,1.46.15,2.95.24,4.4.24.02-.1.14-.23.15-.3h-.01ZM125.94,68.7c.65.11,1.84,0,2.57,0,.02,0,.32-.3.32-.32v-2.44s-.3-.32-.32-.32h-2.7c-.44,0-.4,2.48-.19,2.85.05.09.23.21.32.23h0ZM46.63,66.07v16.82s.3.32.32.32h8.09s.19-.18.19-.19v-2.44s-.18-.19-.19-.19h-4.88c-.29,0-.06-.65-.06-.83.1-4.4-.06-8.81-.03-13.2-.09-.29-.24-.54-.55-.6s-2.1-.06-2.43,0c-.15.03-.42.19-.45.32h0ZM84.36,68.79c.25-.29.28-2.56-.09-2.87-.31-.26-2.63-.28-2.91-.06-.44.33-.44,2.52-.05,2.9.3.29,2.83.29,3.05.03h0ZM145.91,72.29h2.25c.43,0,.43-1.97.21-2.26-.35-.44-2.45.07-2.45-.37v-2.7c0-.08-.29-.3-.44-.31-.26-.02-2.48.46-2.58.63l-.03,13.65c.37,1.59,1.58,2.08,3.11,2.15.48.02,1.93-.06,2.3-.28.4-.24.19-1.68.16-2.17-.29-.43-2.51.45-2.51-.96v-7.38h-.02ZM90.17,69.98v-2.63c0-.65-1.39-.37-1.83-.29-.56.1-1.35.2-1.48.83.13,3.81-.27,7.87-.03,11.66.12,1.9.47,3.44,2.64,3.65.61.06,2.61.08,3.06-.25.35-.26.39-2.32-.23-2.32h-1.99c.04-.13-.13-.28-.13-.32v-7.77h1.99c.54,0,.57-2,.39-2.31-.26-.45-1.87-.19-2.38-.25h0ZM115.83,70.14c-.2-.2-1.47-.39-1.83-.42-5.9-.44-7.25,2.66-6.88,8.03.32,4.68,4.03,6.14,8.26,5.04.77-.2.68-1.33.61-1.96-.08-.71-.31-.74-.97-.71-1.48.07-3.53.8-4.32-.93-.55-1.2-.61-5.06.22-6.12,1.09-1.39,4.02-.12,4.81-.58.36-.21.35-2.09.1-2.35h0ZM117.66,70.18v12.32s.2.23.26.25c.22.1,2.18.12,2.5.07.17-.03.22-.07.31-.2.52-.74-.12-7.95.16-9.35.47-.76,3.16-.75,3.42-1.01s.25-2.14-.03-2.41c-.26-.26-1.33-.12-1.72-.04-.48.1-1.51.69-1.75.69-.11,0-.13-.39-.26-.52-.22-.22-2.76-.28-2.89.2h0ZM133.97,82.95c2.76.37,5.94.08,7.13-2.83.77-1.89.74-6.57-.39-8.33-1.73-2.7-6.65-2.39-9.33-1.51-.22.07-.41.15-.55.35l-.06,16.24c.09.37.34.54.7.59.47.06,2.51.14,2.51-.45v-4.04h0v-.02ZM66.67,77.56v-3.27c0-.22-.59-1.67-.75-1.95-1.96-3.5-7.99-3.3-9.68.39-.93,2.04-.96,6.42.35,8.3,1.87,2.66,6.2,2.56,9.05,1.87.78-.19.77-1.5.63-2.18-.18-.91-1.39-.34-1.98-.32-2.43.09-5.38.57-5.46-2.7h7.51s.2-.17.32-.13h.01ZM125.62,69.85v12.97h3.08v-12.97s-3.08,0-3.08,0ZM73.45,70.02c-3.45.24-5.55,1.62-5.1,5.4.06.54.76,1.7.74,1.79-.03.16-.33.31-.43.47-.43.74-.45,1.65-.13,2.43.12.3.56.73.57.96.01.33-.4.59-.54.87-.84,1.77-.4,3.88,1.35,4.86,1.94,1.09,6.3,1.13,8.22-.05,1.73-1.06,2.08-3.86.48-5.17-1.52-1.25-7.01-1.86-7.46-2.43-.22-.27-.11-.76.22-.82.1-.02,1.28.33,1.65.36,3.52.28,6.88-1.06,6.23-5.2-.05-.29-.41-.75-.37-.9.06-.27.89-.11,1.02-.92.11-.68-.02-1.59-.83-1.72-1.28-.2-4.22-.07-5.61.03h0v.04ZM81.18,70.43v12.2s.3.32.32.32h2.7s.19-.18.19-.19v-12.45c0-.41-2.6-.41-2.98-.19-.09.05-.21.23-.23.32h0ZM33.37,70.27l-5.34,3.13c-.15.24-.24.47-.28.75-.14,1.15-.14,4.37,0,5.53.06.48.29.73.65,1.01.56.44,4.28,2.62,4.88,2.83.49.16.71.08,1.16-.12,1.11-.48,3.37-1.83,4.4-2.53.58-.39.79-.41.87-1.19.12-1.32.15-4.37,0-5.66-.02-.21-.05-.31-.15-.49-.4-.78-4.4-2.44-5.25-3.22-.29-.12-.63-.1-.93-.04h0ZM84.49,119.82c-.4.07-1.07.51-1.47.72-5.06,2.64-9.92,5.99-14.98,8.65-.82.63-1.45,1.54-1.5,2.61.39,5.89-.5,12.42,0,18.24.11,1.29.71,2.04,1.73,2.76,5.09,2.62,10.03,6.22,15.14,8.75,2.57,1.28,3.48.2,5.7-1.03,4.46-2.47,8.79-5.2,13.26-7.67,1.05-.66,1.7-1.55,1.81-2.81.5-5.82-.39-12.35,0-18.24-.05-1.07-.68-1.98-1.5-2.61-5.55-3.07-10.92-6.49-16.55-9.38-.52.01-1.12-.07-1.63.02h0Z"/>
    <path class="st7" d="M84.36,68.79c-.22.26-2.75.26-3.05-.03-.39-.38-.39-2.57.05-2.9.29-.22,2.6-.2,2.91.06.37.31.34,2.57.09,2.87h0Z"/>
    <path class="st9" d="M71.89,82.07c.3-.07,3.85.91,4.2,1.16.62.44.44,1.47-.23,1.79-.9.42-4.26.51-4.54-.74-.12-.53-.09-2.04.57-2.2h0Z"/>
    <g>
      <path class="st5" d="M84.49,119.82c.51-.1,1.11,0,1.63-.02,5.63,2.9,11.01,6.31,16.55,9.38.82.63,1.45,1.54,1.5,2.61-.39,5.89.5,12.42,0,18.24-.11,1.25-.76,2.15-1.81,2.81-4.47,2.47-8.8,5.2-13.26,7.67-2.21,1.23-3.12,2.3-5.7,1.03-5.1-2.53-10.04-6.12-15.14-8.75-1.02-.72-1.62-1.47-1.73-2.76-.5-5.82.39-12.35,0-18.24.05-1.07.68-1.98,1.5-2.61,5.07-2.66,9.93-6.01,14.98-8.65.4-.21,1.06-.64,1.47-.72h.01ZM93.09,132.92l-10.83,10.62-4.76-4.59c-.31-.07-.61-.05-.9.07-.08.03-1.33,1.11-1.38,1.19-.13.21-.11.91,0,1.15l6.41,6.56c.31.21.73.16,1.07.02l12.68-12.74c.4-.55-1.14-2.22-1.54-2.31-.2-.04-.55-.03-.74.02h0Z"/>
      <path class="st9" d="M93.09,132.92c.2-.06.54-.06.74-.02.41.08,1.94,1.75,1.54,2.31l-12.68,12.74c-.33.14-.76.18-1.07-.02l-6.41-6.56c-.11-.24-.13-.94,0-1.15.05-.08,1.3-1.15,1.38-1.19.29-.12.59-.15.9-.07l4.76,4.59,10.83-10.62h.01Z"/>
    </g>
    <g>
      <path class="st7" d="M73.45,70.02c1.38-.1,4.32-.23,5.61-.03.81.13.94,1.03.83,1.72-.13.81-.96.64-1.02.92-.03.15.33.61.37.9.66,4.13-2.71,5.48-6.23,5.2-.37-.03-1.54-.39-1.65-.36-.33.06-.44.55-.22.82.45.57,5.94,1.18,7.46,2.43,1.61,1.32,1.25,4.11-.48,5.17-1.92,1.18-6.28,1.15-8.22.05-1.75-.99-2.19-3.09-1.35-4.86.13-.28.55-.54.54-.87,0-.24-.45-.66-.57-.96-.32-.79-.29-1.69.13-2.43.09-.16.39-.32.43-.47.02-.1-.67-1.25-.74-1.79-.45-3.79,1.65-5.16,5.1-5.4h0v-.04ZM75.88,75.72c.35-.39.37-1.44.29-1.94-.29-1.8-4.44-1.87-4.73.13-.11.75-.04,1.59.64,2.03.8.52,3.13.52,3.8-.22h0ZM71.89,82.07c-.66.16-.69,1.67-.57,2.2.28,1.26,3.64,1.16,4.54.74.67-.31.85-1.34.23-1.79-.35-.25-3.9-1.23-4.2-1.16h0Z"/>
      <g>
        <path class="st7" d="M33.37,70.27c.3-.06.64-.08.93.04.86.78,4.85,2.44,5.25,3.22.09.18.12.29.15.49.15,1.29.12,4.34,0,5.66-.07.78-.29.79-.87,1.19-1.03.7-3.29,2.05-4.4,2.53-.44.19-.67.28-1.16.12-.6-.2-4.31-2.38-4.88-2.83-.37-.29-.6-.53-.65-1.01-.14-1.15-.14-4.37,0-5.53.03-.29.13-.51.28-.75l5.34-3.13h0Z"/>
        <path class="st7" d="M46.73,47.92c.33-.06.44,0,.73.12.82.33,4.19,2.28,4.87,2.83.49.4.55.56.6,1.19.12,1.28.12,3.87,0,5.15s-1.23,1.54-2.23,2.14c-.55.33-3.38,2.01-3.75,2.01-.21,0-.47-.13-.67-.22-1.13-.5-3.36-1.82-4.4-2.54-.4-.27-.85-.49-.92-1.01-.16-1.22-.12-4.52,0-5.79.09-.92.74-1.05,1.46-1.49s3.7-2.28,4.29-2.39h.02Z"/>
        <path class="st2" d="M33.76,47.93c.3-.06.64-.08.93.04.86.78,4.85,2.44,5.25,3.22.09.18.12.29.15.49.15,1.28.12,4.34,0,5.66-.09.99-1.05,1.27-1.85,1.75-.59.36-3.6,2.15-4.01,2.17s-.63-.17-.96-.33c-1.11-.53-3.53-1.86-4.48-2.58-.49-.37-.6-.67-.66-1.27-.12-1.21-.14-4.08,0-5.27.03-.29.13-.51.28-.75l5.34-3.13h0Z"/>
        <path class="st10" d="M26.95,58.97c.33-.07.61-.06.93.04.64.21,4.15,2.3,4.8,2.77.37.27.55.47.6.94.15,1.28.12,4.34,0,5.66-.04.42-.06.6-.4.89-.51.44-4.38,2.67-5.04,2.92s-.85.03-1.38-.22c-1.09-.52-3.55-1.88-4.48-2.58-.49-.37-.6-.67-.66-1.27-.12-1.22-.13-3.94,0-5.14.03-.31.13-.6.27-.88l5.34-3.13h.02Z"/>
      </g>
      <path class="st10" d="M133.97,82.95v4.04c0,.6-2.04.52-2.51.45-.36-.05-.6-.22-.7-.59l.06-16.24c.13-.2.33-.28.55-.35,2.68-.88,7.61-1.18,9.33,1.51,1.13,1.77,1.16,6.44.39,8.33-1.19,2.91-4.37,3.19-7.13,2.83h0v.02ZM133.97,80.25c3.01.43,4.29.24,4.5-3.01.12-1.77.16-4.69-2.12-4.95-.31-.03-2.38-.06-2.38.32v7.64Z"/>
      <path class="st10" d="M105.46,68.38c-.01.07-.13.2-.15.3-1.46,0-2.95-.09-4.4-.24-1.63-.26-3.87,1.14-2.19,2.7,2.02,1.88,6.02,2.31,6.99,5.46,1.51,4.9-3.07,6.73-7.12,6.48-.49-.03-3.28-.36-3.28-.83v-2.05c0-.62,2.31-.08,2.76-.06,1.8.09,5.13.25,4.25-2.58-.51-1.66-6.59-3.11-7.34-6.15-1.52-6.24,5.51-6.31,9.71-5.47.18.04.76.2.76.39,0,.59.09,1.53,0,2.05h.01Z"/>
      <path class="st7" d="M46.63,66.07c.03-.13.3-.29.45-.32.33-.06,2.1-.06,2.43,0s.46.32.55.6c-.03,4.4.13,8.81.03,13.2,0,.18-.24.83.06.83h4.88s.19.18.19.19v2.44s-.18.19-.19.19h-8.09s-.32-.3-.32-.32v-16.82h0Z"/>
      <path class="st10" d="M115.83,70.14c.26.26.27,2.13-.1,2.35-.79.46-3.72-.81-4.81.58-.83,1.06-.77,4.92-.22,6.12.79,1.73,2.84,1,4.32.93.66-.03.89,0,.97.71.07.63.16,1.76-.61,1.96-4.22,1.1-7.94-.36-8.26-5.04-.37-5.37.98-8.47,6.88-8.03.35.03,1.63.22,1.83.42h0Z"/>
      <path class="st10" d="M145.91,72.29v7.38c0,1.41,2.22.53,2.51.96.03.49.24,1.93-.16,2.17-.37.22-1.82.31-2.3.28-1.53-.07-2.73-.56-3.11-2.15l.03-13.65c.1-.17,2.32-.64,2.58-.63.15,0,.44.23.44.31v2.7c0,.44,2.11-.06,2.45.37.22.28.22,2.26-.21,2.26h-2.25.02Z"/>
      <path class="st10" d="M117.66,70.18c.13-.48,2.68-.41,2.89-.2.13.13.15.52.26.52.24,0,1.27-.6,1.75-.69.39-.08,1.46-.22,1.72.04.28.28.28,2.16.03,2.41s-2.95.25-3.42,1.01c-.28,1.4.36,8.61-.16,9.35-.1.13-.14.17-.31.2-.32.06-2.28.04-2.5-.07-.06-.03-.26-.23-.26-.25v-12.33h0Z"/>
      <g>
        <path class="st7" d="M90.17,69.98c.5.07,2.11-.19,2.38.25.18.32.15,2.31-.39,2.31h-1.99v7.77s.17.2.13.32h1.99c.62,0,.59,2.06.23,2.32-.44.33-2.45.31-3.06.25-2.17-.21-2.52-1.76-2.64-3.65-.24-3.79.17-7.85.03-11.66.14-.63.92-.73,1.48-.83.44-.08,1.83-.37,1.83.29v2.63h0Z"/>
        <path class="st7" d="M81.18,70.43c.02-.09.13-.27.23-.32.38-.21,2.98-.22,2.98.19v12.45s-.18.19-.19.19h-2.7s-.32-.3-.32-.32v-12.2h0Z"/>
      </g>
      <path class="st9" d="M133.97,80.25v-7.64c0-.38,2.07-.36,2.38-.32,2.28.26,2.24,3.18,2.12,4.95-.21,3.25-1.49,3.44-4.5,3.01Z"/>
      <g>
        <path class="st7" d="M66.67,77.56c-.13-.04-.28.13-.32.13h-7.51c.09,3.27,3.03,2.79,5.46,2.7.59-.02,1.81-.59,1.98.32.13.68.15,1.99-.63,2.18-2.85.69-7.18.79-9.05-1.87-1.31-1.87-1.29-6.26-.35-8.3,1.69-3.69,7.72-3.88,9.68-.39.16.28.75,1.72.75,1.95v3.27h-.01ZM63.59,75.37c.26-2.27-2.52-3.79-4.11-2.08-.3.32-1.01,2.08-.45,2.08h4.56Z"/>
        <path class="st9" d="M75.88,75.72c-.67.74-3,.74-3.8.22-.68-.44-.75-1.28-.64-2.03.29-2,4.45-1.93,4.73-.13.08.5.06,1.56-.29,1.94h0Z"/>
        <path class="st9" d="M63.59,75.37h-4.56c-.56,0,.15-1.76.45-2.08,1.59-1.71,4.38-.19,4.11,2.08h0Z"/>
      </g>
      <g>
        <rect class="st10" x="125.62" y="69.85" width="3.08" height="12.97"/>
        <path class="st10" d="M125.94,68.7c-.09-.02-.27-.13-.32-.23-.21-.37-.25-2.85.19-2.85h2.7s.32.3.32.32v2.44s-.3.32-.32.32c-.73,0-1.92.11-2.57,0h0Z"/>
      </g>
    </g>
  </g>
  <g class="st4">
    <g class="st4">
      <path class="st8" d="M52.34,100.89c.52-.93,1.24-1.65,2.14-2.18.9-.52,1.91-.78,3.01-.78,1.3,0,2.43.31,3.4.94.97.63,1.67,1.51,2.12,2.66h-1.86c-.33-.72-.81-1.27-1.42-1.65-.62-.39-1.36-.58-2.23-.58s-1.58.19-2.23.58c-.66.39-1.18.94-1.55,1.65s-.56,1.54-.56,2.5.19,1.77.56,2.48c.37.71.89,1.26,1.55,1.65s1.4.58,2.23.58,1.61-.19,2.23-.57,1.09-.93,1.42-1.65h1.86c-.44,1.14-1.15,2.02-2.12,2.64-.97.62-2.1.93-3.4.93-1.1,0-2.11-.26-3.01-.78s-1.62-1.24-2.14-2.16c-.52-.92-.78-1.96-.78-3.12s.26-2.2.78-3.13h0Z"/>
      <path class="st8" d="M73.78,105.88h-7.47c.06.92.37,1.64.95,2.16.58.52,1.27.78,2.09.78.67,0,1.23-.16,1.68-.47s.77-.73.95-1.25h1.67c-.25.9-.75,1.63-1.5,2.19-.75.56-1.68.85-2.8.85-.89,0-1.68-.2-2.38-.6s-1.25-.96-1.65-1.7c-.4-.73-.6-1.58-.6-2.55s.19-1.81.58-2.54.93-1.29,1.63-1.68,1.5-.59,2.41-.59,1.67.19,2.35.58,1.21.92,1.58,1.59c.37.68.55,1.44.55,2.3,0,.3-.02.61-.05.94h.01ZM71.84,103.09c-.26-.43-.62-.75-1.06-.97-.45-.22-.95-.33-1.49-.33-.78,0-1.45.25-2,.75s-.87,1.19-.95,2.08h5.9c0-.59-.13-1.1-.39-1.53h-.01Z"/>
      <path class="st8" d="M78.6,100.89c.51-.3,1.12-.44,1.85-.44v1.6h-.41c-1.74,0-2.61.94-2.61,2.83v5.08h-1.55v-9.35h1.55v1.52c.27-.54.66-.95,1.17-1.24h0Z"/>
      <path class="st8" d="M84.14,101.9v5.51c0,.45.1.78.29.96s.53.28,1.01.28h1.14v1.31h-1.4c-.86,0-1.51-.2-1.95-.6-.43-.4-.65-1.05-.65-1.96v-5.51h-1.21v-1.28h1.21v-2.35h1.55v2.35h2.44v1.28h-2.44,0Z"/>
      <path class="st8" d="M88.5,98.8c-.21-.21-.31-.45-.31-.75s.1-.55.31-.75.45-.31.75-.31.53.1.73.31.3.45.3.75-.1.55-.3.75c-.2.2-.44.31-.73.31s-.55-.1-.75-.31ZM90.01,100.62v9.35h-1.55v-9.35h1.55Z"/>
      <path class="st8" d="M96.45,101.9h-1.96v8.07h-1.55v-8.07h-1.21v-1.28h1.21v-.67c0-1.05.27-1.81.81-2.3s1.41-.73,2.6-.73v1.3c-.68,0-1.16.13-1.44.4s-.42.71-.42,1.32v.67h1.96v1.28h0Z"/>
      <path class="st8" d="M98.31,98.8c-.2-.21-.31-.45-.31-.75s.1-.55.31-.75.45-.31.75-.31.53.1.73.31.3.45.3.75-.1.55-.3.75c-.2.2-.44.31-.73.31s-.55-.1-.75-.31ZM99.82,100.62v9.35h-1.55v-9.35h1.55Z"/>
      <path class="st8" d="M110.94,105.88h-7.47c.06.92.37,1.64.95,2.16.58.52,1.27.78,2.09.78.67,0,1.23-.16,1.68-.47s.77-.73.95-1.25h1.67c-.25.9-.75,1.63-1.5,2.19s-1.68.85-2.8.85c-.89,0-1.68-.2-2.38-.6s-1.25-.96-1.65-1.7c-.4-.73-.6-1.58-.6-2.55s.19-1.81.58-2.54.93-1.29,1.63-1.68,1.5-.59,2.41-.59,1.67.19,2.35.58,1.21.92,1.58,1.59.55,1.44.55,2.3c0,.3-.02.61-.05.94h.01ZM108.99,103.09c-.26-.43-.62-.75-1.06-.97-.45-.22-.95-.33-1.49-.33-.78,0-1.45.25-2,.75s-.87,1.19-.95,2.08h5.9c0-.59-.13-1.1-.39-1.53h-.01Z"/>
      <path class="st8" d="M113.04,102.75c.39-.72.92-1.28,1.59-1.68s1.44-.6,2.28-.6c.73,0,1.4.17,2.03.5s1.1.78,1.43,1.32v-4.95h1.57v12.62h-1.57v-1.76c-.31.56-.76,1.01-1.36,1.37s-1.31.54-2.12.54-1.58-.21-2.26-.62-1.21-.98-1.59-1.72c-.39-.74-.58-1.58-.58-2.53s.19-1.8.58-2.52h0v.03ZM119.95,103.44c-.28-.52-.67-.92-1.15-1.2s-1.01-.42-1.59-.42-1.11.14-1.59.41c-.48.27-.86.67-1.14,1.19-.28.52-.43,1.14-.43,1.84s.14,1.34.43,1.87.67.93,1.14,1.21c.48.28,1.01.42,1.59.42s1.11-.14,1.59-.42.87-.68,1.15-1.21.43-1.15.43-1.85-.14-1.32-.43-1.84h0Z"/>
    </g>
  </g>
  <g>
    <path class="st0" d="M262.48,30.17c37.71,6.37,60.21,46.4,43.51,81.75-8.41,17.8-25.88,29.39-45.02,32.56h-13.62c-19.83-3.69-37.04-15.02-45.3-33.8-2.74-6.23-4.04-12.58-5.41-19.2.18-2.71-.26-5.66,0-8.33,2.44-25.3,23.32-49.92,49.2-52.99h16.65-.01ZM246.42,36.43c-17.94,2.15-34.73,16.83-40.52,33.66-16.32,47.46,38.01,88.11,78.78,58.36,42.37-30.91,15.84-98.52-38.26-92.02Z"/>
    <path class="st1" d="M245.83,30.17c-25.88,3.08-46.75,27.7-49.2,52.99V30.17h49.2Z"/>
    <path class="st0" d="M371.47,36.98v49.59c0,.08-1.06,1.14-1.14,1.14h-11.73l-16.65-27.25v26.12c0,1.72-12.87,1.72-12.87,0v-45.8h12.49l17.03,27.25v-22.33c0-5.04,8.27-9.19,12.87-8.71h0Z"/>
    <path class="st0" d="M446.78,40.76c12.5,1.48,19.65,13.7,8.71,22.34v1.11c9.51,3.86,7.59,18.1-1.53,21.58-1.14.44-7.07,1.9-7.94,1.9h-23.08v-46.94c7.56.64,16.46-.87,23.84,0h0ZM435.05,60.45c4.57,0,13.65,1.03,13.66-5.68.01-6.27-9.14-5.4-13.66-5.68v11.36ZM435.05,78.62c19.65,3.15,19.35-14.33,0-11.36v11.36Z"/>
    <path class="st0" d="M373.74,87.7l18.51-46.99,10.9.16,17.51,46.83h-11.73c-1.55,0-3.17-8.94-3.87-9.13-2.33.49-15.35-.54-16.11.12-.37.32-1.85,9.01-3.48,9.01,0,0-11.73,0-11.73,0ZM397.95,55.9c-1.08-1.11-1.32.3-1.68.97-.76,1.38-4.19,12.07-3.61,12.66h9.08c-.59-1.83-3.29-13.12-3.79-13.62h0Z"/>
    <path class="st0" d="M477.43,71.8v15.9h-12.11v-46.94h24.6c.58,0,4.01,1.46,4.95,1.86,11.65,4.99,13.56,21.18,1.66,26.7-1.24.57-7.16,2.48-8.12,2.48h-10.98ZM477.43,62.72c5.17-.16,14.14,1.59,14.46-5.66.4-9.08-8.12-7.13-14.46-7.21v12.87Z"/>
    <path class="st1" d="M246.42,36.43c54.1-6.5,80.63,61.11,38.26,92.02-40.77,29.75-95.1-10.9-78.78-58.36,5.79-16.83,22.58-31.51,40.52-33.66ZM274.59,103.6c-.28.33,1.01,6.28.76,8.71-2.73,25.95-43.76,23.06-40.87-4.56,2.22-21.28,25.87-14.28,37.34-23.97s9.12-29.92-2.59-38.79c-13.71-10.39-39.99-5.47-35.5,15.45l6.06-8.7c16.69-15.66,42.69,3.09,31.15,23.58-8.28,14.7-30.19,4.35-38.74,24.08-16.23,37.43,48.98,47.71,44.68,7.58-.06-.52-.8-5.12-2.27-3.39h-.02ZM235.23,68.02h35.57v-6.06l-41.63.76c-2.09,6.03,6.16,24.01,12.49,24.2,2.31.07,11.33-5.65,15.53-3.75-.38-2.75,1.32-9.56-2.06-10.5-4.84-1.34-3.71,4.88-4,5.19-.31.34-7.24-.35-7.57,0-.37.37.6,3.22-.37,3.79-4.08-3.72-8.05-7.67-7.95-13.62h-.01ZM254.91,121.77c.46-9.83,1.05-19.84,1.13-29.54l-4.2,1.2c.51,9.44,1.4,18.87,1.56,28.33.02,1.07-.31,6.04.38,6.06,1.46-1.66,1.04-4.06,1.14-6.06h-.01Z"/>
    <path class="st1" d="M435.05,78.62v-11.36c19.35-2.97,19.65,14.5,0,11.36Z"/>
    <path class="st1" d="M435.05,60.45v-11.36c4.52.28,13.67-.59,13.66,5.68-.01,6.7-9.09,5.69-13.66,5.68Z"/>
    <path class="st1" d="M397.95,55.9c.49.5,3.2,11.8,3.79,13.62h-9.08c-.58-.59,2.85-11.28,3.61-12.66.37-.67.6-2.07,1.68-.97h0Z"/>
    <path class="st1" d="M477.43,62.72v-12.87c6.33.08,14.85-1.87,14.46,7.21-.32,7.25-9.28,5.5-14.46,5.66Z"/>
    <path class="st1" d="M332.11,133.88v-5.31c9.09-1.25,9.12,6.55,0,5.31Z"/>
    <path class="st1" d="M383.48,125.66c1.12.7,2.47,10.89-3.69,7.84-3.76-1.86-.55-10.48,3.69-7.84Z"/>
    <path class="st1" d="M427.48,105.87h-4.54l2.65-6.81c.81.95,2.48,6.21,1.89,6.81Z"/>
    <path class="st1" d="M463.81,130.1c1.69,3.38-3.82,4.99-4.53,2.64-.84-2.78,2.78-2.92,4.53-2.64Z"/>
    <path class="st1" d="M494.84,105.87c.76,3.65-1.36,3.75-4.54,3.78-.53-3.76,1.22-4.12,4.54-3.78Z"/>
    <path class="st1" d="M363.9,130.1c.37,2.8-1.85,4.31-4.46,3.7l-.84-2.94,5.3-.76Z"/>
    <path class="st1" d="M503.16,130.1c.14,1.22-.04,2.29-1.07,3.08-4.28,3.32-6.87-4.74,1.07-3.08Z"/>
    <path class="st1" d="M353.3,105.87c1.03,3.3-4.48,5.25-5.29,2.64-.95-3.09,3.59-2.84,5.29-2.64Z"/>
    <path class="st1" d="M516.5,101.41c5.2-1.84,6.58,6.97,2.78,8.11-5.91,1.78-5.02-7.32-2.78-8.11Z"/>
    <path class="st0" d="M274.59,103.6c1.47-1.72,2.22,2.88,2.27,3.39,4.3,40.13-60.91,29.85-44.68-7.58,8.55-19.73,30.46-9.38,38.74-24.08,11.55-20.49-14.46-39.24-31.15-23.58l-6.06,8.7c-4.48-20.92,21.8-25.85,35.5-15.45,11.71,8.88,14.24,28.95,2.59,38.79s-35.12,2.69-37.34,23.97c-2.88,27.62,38.15,30.5,40.87,4.56.25-2.43-1.04-8.38-.76-8.71h.02Z"/>
    <path class="st0" d="M235.23,68.02c-.1,5.95,3.88,9.91,7.95,13.62.97-.56,0-3.41.37-3.79.34-.34,7.26.35,7.57,0,.29-.32-.83-6.53,4-5.19,3.37.93,1.68,7.74,2.06,10.5-4.2-1.9-13.22,3.82-15.53,3.75-6.33-.19-14.58-18.17-12.49-24.2l41.63-.76v6.06h-35.58.02Z"/>
    <path class="st0" d="M253.4,121.77c-.16-9.46-1.05-18.89-1.56-28.33l4.2-1.2c-.08,9.7-.66,19.71-1.13,29.54h-1.51Z"/>
    <path class="st6" d="M254.91,121.77c-.09,2,.32,4.4-1.14,6.06-.69-.02-.36-4.99-.38-6.06h1.52Z"/>
  </g>
  <g>
    <path class="st3" d="M327.87,113.83v-14.8h2.05l9.05,12.12-.34.19c-.06-.35-.11-.74-.15-1.15-.04-.42-.08-.86-.12-1.33s-.06-.97-.08-1.5-.04-1.08-.05-1.66c-.01-.58-.02-1.18-.02-1.8v-4.86h2.28v14.8h-2.09l-8.9-11.67.23-.3c.07.86.13,1.59.18,2.19.05.6.09,1.11.13,1.52.04.42.06.75.07,1.02.01.26.03.48.03.65s.01.32.01.44v6.15h-2.28Z"/>
    <path class="st3" d="M347.83,114.04c-.92,0-1.75-.25-2.51-.76s-1.36-1.2-1.81-2.07-.68-1.86-.68-2.96.23-2.1.69-2.97,1.08-1.55,1.86-2.04,1.66-.74,2.63-.74c.58,0,1.11.08,1.59.25s.9.41,1.26.71c.36.3.66.65.89,1.05s.38.82.43,1.27l-.49-.17v-2.88h2.2v11.1h-2.2v-2.64l.51-.15c-.08.38-.26.75-.52,1.11s-.59.68-.99.96-.85.51-1.33.68c-.49.17-1,.25-1.53.25h0ZM348.4,112.03c.66,0,1.25-.16,1.75-.49.51-.32.91-.77,1.2-1.34s.43-1.22.43-1.96-.15-1.36-.43-1.92c-.29-.56-.69-1.01-1.2-1.33s-1.09-.49-1.75-.49-1.22.16-1.72.49c-.5.32-.9.77-1.18,1.33-.29.56-.43,1.21-.43,1.92s.14,1.38.43,1.96c.29.57.68,1.02,1.18,1.34s1.08.49,1.72.49Z"/>
    <path class="st3" d="M355.48,104.84v-2.11h7.06v2.11h-7.06ZM357.79,113.83v-13.94h2.18v13.94h-2.18Z"/>
    <path class="st3" d="M365.42,100.27c-.46,0-.83-.12-1.08-.36s-.38-.58-.38-1.02c0-.41.13-.74.39-.99s.62-.38,1.07-.38.82.12,1.08.36c.25.24.38.58.38,1.02,0,.41-.13.74-.39.99s-.62.38-1.07.38ZM364.37,113.83v-11.1h2.18v11.1h-2.18Z"/>
    <path class="st3" d="M374.35,114.04c-1.09,0-2.06-.25-2.91-.75s-1.53-1.18-2.02-2.05-.74-1.86-.74-2.97.25-2.1.74-2.97,1.17-1.55,2.02-2.05c.85-.5,1.82-.75,2.91-.75s2.03.25,2.89.75c.85.5,1.53,1.18,2.02,2.05s.74,1.86.74,2.97-.25,2.1-.74,2.97-1.17,1.55-2.02,2.05c-.85.5-1.82.75-2.89.75ZM374.35,112.05c.66,0,1.25-.17,1.78-.5.52-.33.93-.78,1.23-1.35.3-.57.44-1.22.42-1.94.01-.73-.13-1.39-.42-1.96-.3-.57-.71-1.02-1.23-1.34s-1.11-.49-1.78-.49-1.26.17-1.79.5-.94.78-1.24,1.35-.44,1.22-.42,1.94c-.01.72.13,1.36.42,1.94.3.57.71,1.02,1.24,1.35s1.12.5,1.79.5Z"/>
    <path class="st3" d="M381.83,113.83v-11.1h2.18v2.28l-.38.25c.14-.49.42-.95.82-1.36s.9-.75,1.46-1.02c.56-.26,1.14-.39,1.73-.39.85,0,1.55.17,2.11.5s.99.84,1.27,1.51c.28.68.42,1.53.42,2.56v6.77h-2.18v-6.62c0-.63-.08-1.16-.25-1.58s-.43-.72-.78-.91-.79-.27-1.31-.24c-.42,0-.81.07-1.16.2s-.66.32-.92.56-.47.52-.61.83c-.15.32-.22.66-.22,1.03v6.72h-2.18Z"/>
    <path class="st3" d="M398.16,114.04c-.92,0-1.75-.25-2.51-.76s-1.36-1.2-1.81-2.07-.68-1.86-.68-2.96.23-2.1.69-2.97,1.08-1.55,1.86-2.04,1.66-.74,2.63-.74c.58,0,1.11.08,1.59.25s.9.41,1.26.71c.36.3.66.65.89,1.05s.38.82.43,1.27l-.49-.17v-2.88h2.2v11.1h-2.2v-2.64l.51-.15c-.08.38-.26.75-.52,1.11s-.59.68-.99.96-.85.51-1.33.68c-.49.17-1,.25-1.53.25h0ZM398.73,112.03c.66,0,1.25-.16,1.75-.49.51-.32.91-.77,1.2-1.34s.43-1.22.43-1.96-.15-1.36-.43-1.92c-.29-.56-.69-1.01-1.2-1.33s-1.09-.49-1.75-.49-1.22.16-1.72.49c-.5.32-.9.77-1.18,1.33-.29.56-.43,1.21-.43,1.92s.14,1.38.43,1.96c.29.57.68,1.02,1.18,1.34s1.08.49,1.72.49Z"/>
    <path class="st3" d="M406.78,113.83v-15.65h2.18v15.65h-2.18Z"/>
    <path class="st3" d="M415.92,113.83l5.73-14.8h2.33l5.69,14.8h-2.43l-3.38-8.92c-.04-.1-.12-.34-.24-.72-.12-.38-.26-.8-.41-1.27s-.3-.89-.42-1.28-.21-.64-.25-.75l.49-.02c-.08.24-.19.54-.31.91s-.25.75-.38,1.16-.26.79-.39,1.15-.23.66-.32.9l-3.36,8.84h-2.35ZM418.46,110.15l.85-2.2h6.72l.97,2.2h-8.54Z"/>
    <path class="st3" d="M434.89,114.04c-.93,0-1.77-.16-2.52-.49-.75-.32-1.37-.8-1.86-1.44l1.48-1.27c.42.49.88.85,1.38,1.07s1.07.33,1.7.33c.25,0,.49-.03.71-.1s.41-.16.57-.29.29-.28.37-.45c.08-.18.13-.37.13-.58,0-.37-.13-.66-.4-.89-.14-.1-.36-.21-.67-.33-.3-.12-.69-.24-1.17-.37-.82-.21-1.49-.45-2.01-.72-.52-.27-.92-.57-1.21-.91-.21-.27-.37-.56-.47-.88s-.15-.67-.15-1.05c0-.47.1-.89.31-1.28.2-.39.49-.73.85-1.02.36-.29.78-.51,1.27-.67.49-.15,1-.23,1.55-.23.52,0,1.04.07,1.55.21s.99.35,1.43.61c.44.27.8.58,1.1.95l-1.25,1.37c-.27-.27-.56-.5-.88-.71-.32-.2-.64-.36-.96-.48-.32-.11-.62-.17-.89-.17-.3,0-.56.03-.8.08-.24.06-.44.14-.6.25s-.29.25-.37.42-.13.36-.13.57c.01.18.06.36.14.52.08.16.19.3.33.41.16.11.39.23.7.36s.71.25,1.18.36c.7.18,1.29.38,1.74.6s.82.47,1.09.75c.28.27.48.58.59.93s.17.75.17,1.18c0,.63-.18,1.2-.54,1.7-.36.5-.84.89-1.45,1.17-.61.28-1.28.42-2.03.42l.02.07Z"/>
    <path class="st3" d="M444.49,114.04c-.93,0-1.77-.16-2.52-.49-.75-.32-1.37-.8-1.86-1.44l1.48-1.27c.42.49.88.85,1.38,1.07s1.07.33,1.7.33c.25,0,.49-.03.71-.1s.41-.16.57-.29.29-.28.37-.45c.08-.18.13-.37.13-.58,0-.37-.13-.66-.4-.89-.14-.1-.36-.21-.67-.33-.3-.12-.69-.24-1.17-.37-.82-.21-1.49-.45-2.01-.72-.52-.27-.92-.57-1.21-.91-.21-.27-.37-.56-.47-.88s-.15-.67-.15-1.05c0-.47.1-.89.31-1.28.2-.39.49-.73.85-1.02.36-.29.78-.51,1.27-.67.49-.15,1-.23,1.55-.23.52,0,1.04.07,1.55.21s.99.35,1.43.61c.44.27.8.58,1.1.95l-1.25,1.37c-.27-.27-.56-.5-.88-.71-.32-.2-.64-.36-.96-.48-.32-.11-.62-.17-.89-.17-.3,0-.56.03-.8.08-.24.06-.44.14-.6.25s-.29.25-.37.42-.13.36-.13.57c.01.18.06.36.14.52.08.16.19.3.33.41.16.11.39.23.7.36s.71.25,1.18.36c.7.18,1.29.38,1.74.6s.82.47,1.09.75c.28.27.48.58.59.93s.17.75.17,1.18c0,.63-.18,1.2-.54,1.7-.36.5-.84.89-1.45,1.17-.61.28-1.28.42-2.03.42l.02.07Z"/>
    <path class="st3" d="M455.38,114.04c-1.09,0-2.06-.25-2.91-.75s-1.53-1.18-2.02-2.05-.74-1.86-.74-2.97.25-2.1.74-2.97,1.17-1.55,2.02-2.05c.85-.5,1.82-.75,2.91-.75s2.03.25,2.89.75c.85.5,1.53,1.18,2.02,2.05s.74,1.86.74,2.97-.25,2.1-.74,2.97-1.17,1.55-2.02,2.05c-.85.5-1.82.75-2.89.75ZM455.38,112.05c.66,0,1.25-.17,1.78-.5.52-.33.93-.78,1.23-1.35.3-.57.44-1.22.42-1.94.01-.73-.13-1.39-.42-1.96-.3-.57-.71-1.02-1.23-1.34s-1.11-.49-1.78-.49-1.26.17-1.79.5-.94.78-1.24,1.35-.44,1.22-.42,1.94c-.01.72.13,1.36.42,1.94.3.57.71,1.02,1.24,1.35s1.12.5,1.79.5Z"/>
    <path class="st3" d="M467.58,114.04c-1.03,0-1.95-.25-2.76-.76s-1.45-1.2-1.92-2.07-.71-1.85-.71-2.94.24-2.06.71-2.94c.47-.87,1.11-1.56,1.92-2.07.81-.51,1.73-.76,2.76-.76s1.89.2,2.7.6,1.43.95,1.85,1.64l-1.21,1.48c-.23-.32-.51-.62-.87-.89-.35-.27-.73-.48-1.12-.63s-.78-.23-1.14-.23c-.68,0-1.28.17-1.81.5s-.95.79-1.26,1.36c-.31.58-.47,1.23-.47,1.95s.16,1.36.49,1.94c.32.57.75,1.03,1.29,1.36s1.13.51,1.78.51c.38,0,.75-.06,1.11-.19.36-.13.71-.32,1.05-.57s.66-.56.95-.93l1.21,1.48c-.45.63-1.1,1.16-1.94,1.56s-1.71.61-2.61.61h0Z"/>
    <path class="st3" d="M475.07,100.27c-.46,0-.83-.12-1.08-.36s-.38-.58-.38-1.02c0-.41.13-.74.39-.99s.62-.38,1.07-.38.82.12,1.08.36c.25.24.38.58.38,1.02,0,.41-.13.74-.39.99s-.62.38-1.07.38ZM474.01,113.83v-11.1h2.18v11.1h-2.18Z"/>
    <path class="st3" d="M483.27,114.04c-.92,0-1.75-.25-2.51-.76s-1.36-1.2-1.81-2.07-.68-1.86-.68-2.96.23-2.1.69-2.97,1.08-1.55,1.86-2.04,1.66-.74,2.63-.74c.58,0,1.11.08,1.59.25s.9.41,1.26.71c.36.3.66.65.89,1.05s.38.82.43,1.27l-.49-.17v-2.88h2.2v11.1h-2.2v-2.64l.51-.15c-.08.38-.26.75-.52,1.11s-.59.68-.99.96-.85.51-1.33.68c-.49.17-1,.25-1.53.25h0ZM483.84,112.03c.66,0,1.25-.16,1.75-.49.51-.32.91-.77,1.2-1.34s.43-1.22.43-1.96-.15-1.36-.43-1.92c-.29-.56-.69-1.01-1.2-1.33s-1.09-.49-1.75-.49-1.22.16-1.72.49c-.5.32-.9.77-1.18,1.33-.29.56-.43,1.21-.43,1.92s.14,1.38.43,1.96c.29.57.68,1.02,1.18,1.34s1.08.49,1.72.49Z"/>
    <path class="st3" d="M490.93,104.84v-2.11h7.06v2.11h-7.06ZM493.23,113.83v-13.94h2.18v13.94h-2.18Z"/>
    <path class="st3" d="M500.87,100.27c-.46,0-.83-.12-1.08-.36s-.38-.58-.38-1.02c0-.41.13-.74.39-.99s.62-.38,1.07-.38.82.12,1.08.36c.25.24.38.58.38,1.02,0,.41-.13.74-.39.99s-.62.38-1.07.38ZM499.81,113.83v-11.1h2.18v11.1h-2.18Z"/>
    <path class="st3" d="M509.79,114.04c-1.09,0-2.06-.25-2.91-.75s-1.53-1.18-2.02-2.05-.74-1.86-.74-2.97.25-2.1.74-2.97,1.17-1.55,2.02-2.05c.85-.5,1.82-.75,2.91-.75s2.03.25,2.89.75c.85.5,1.53,1.18,2.02,2.05s.74,1.86.74,2.97-.25,2.1-.74,2.97-1.17,1.55-2.02,2.05c-.85.5-1.82.75-2.89.75h0ZM509.79,112.05c.66,0,1.25-.17,1.78-.5.52-.33.93-.78,1.23-1.35s.44-1.22.42-1.94c.01-.73-.13-1.39-.42-1.96-.3-.57-.71-1.02-1.23-1.34s-1.11-.49-1.78-.49-1.26.17-1.79.5-.94.78-1.24,1.35-.44,1.22-.42,1.94c-.01.72.13,1.36.42,1.94.3.57.71,1.02,1.24,1.35s1.12.5,1.79.5h0Z"/>
    <path class="st3" d="M517.28,113.83v-11.1h2.18v2.28l-.38.25c.14-.49.42-.95.82-1.36s.9-.75,1.46-1.02c.56-.26,1.14-.39,1.73-.39.85,0,1.55.17,2.11.5s.99.84,1.27,1.51c.28.68.42,1.53.42,2.56v6.77h-2.18v-6.62c0-.63-.08-1.16-.25-1.58s-.43-.72-.78-.91c-.35-.19-.79-.27-1.31-.24-.42,0-.81.07-1.16.2s-.66.32-.92.56-.47.52-.61.83c-.15.32-.22.66-.22,1.03v6.72h-2.18Z"/>
    <path class="st3" d="M539.71,114.04c-1.09,0-2.06-.25-2.91-.75s-1.53-1.18-2.02-2.05-.74-1.86-.74-2.97.25-2.1.74-2.97,1.17-1.55,2.02-2.05c.85-.5,1.82-.75,2.91-.75s2.03.25,2.89.75c.85.5,1.53,1.18,2.02,2.05s.74,1.86.74,2.97-.25,2.1-.74,2.97-1.17,1.55-2.02,2.05c-.85.5-1.82.75-2.89.75ZM539.71,112.05c.66,0,1.25-.17,1.78-.5.52-.33.93-.78,1.23-1.35s.44-1.22.42-1.94c.01-.73-.13-1.39-.42-1.96-.3-.57-.71-1.02-1.23-1.34s-1.11-.49-1.78-.49-1.26.17-1.79.5c-.53.33-.94.78-1.24,1.35s-.44,1.22-.42,1.94c-.01.72.13,1.36.42,1.94.3.57.71,1.02,1.24,1.35.53.33,1.12.5,1.79.5Z"/>
    <path class="st3" d="M546.2,104.92v-2.01h6.6v2.01h-6.6ZM547.98,113.83v-12.35c0-.63.14-1.2.42-1.69.28-.49.67-.88,1.16-1.16.49-.28,1.06-.42,1.71-.42.45,0,.87.08,1.27.25.39.17.71.39.95.68l-.74,1.67c-.18-.17-.38-.31-.6-.41-.22-.11-.43-.16-.62-.16-.3,0-.55.05-.75.14-.21.09-.36.23-.46.42-.1.19-.15.42-.15.69v12.35h-2.2.01Z"/>
    <path class="st3" d="M327.87,133.41v-14.8h6.17c.94,0,1.74.14,2.39.42.65.28,1.14.7,1.47,1.26.33.56.5,1.24.5,2.04s-.22,1.49-.67,2.05c-.44.56-1.06.95-1.85,1.16v-.42c.66.14,1.24.39,1.73.75.49.36.88.81,1.15,1.34.27.54.41,1.15.41,1.84s-.11,1.33-.33,1.87-.54,1-.97,1.36c-.43.37-.95.65-1.55.83-.61.19-1.3.29-2.07.29h-6.39,0ZM330.15,124.74h3.76c.42,0,.8-.08,1.13-.25.33-.17.59-.4.78-.7.19-.3.29-.63.29-1.02,0-.63-.21-1.12-.63-1.46s-1.03-.51-1.82-.51h-3.51v3.93h0ZM330.15,131.21h3.98c.58,0,1.07-.08,1.47-.25s.71-.42.93-.75.33-.73.33-1.19-.12-.81-.35-1.12c-.23-.31-.56-.55-.98-.71s-.92-.24-1.5-.24h-3.87v4.27h0Z"/>
    <path class="st3" d="M346.16,133.62c-1.09,0-2.06-.25-2.91-.75s-1.53-1.18-2.02-2.05c-.49-.87-.74-1.86-.74-2.97s.25-2.1.74-2.97,1.17-1.55,2.02-2.05c.85-.5,1.82-.75,2.91-.75s2.03.25,2.89.75c.85.5,1.53,1.18,2.02,2.05s.74,1.86.74,2.97-.25,2.1-.74,2.97-1.17,1.55-2.02,2.05c-.85.5-1.82.75-2.89.75ZM346.16,131.63c.66,0,1.25-.17,1.78-.5.52-.33.93-.78,1.23-1.35.3-.57.44-1.22.42-1.94.01-.73-.13-1.39-.42-1.96-.3-.57-.71-1.02-1.23-1.34s-1.11-.49-1.78-.49-1.26.17-1.79.5-.94.78-1.24,1.35-.44,1.22-.42,1.94c-.01.72.13,1.36.42,1.94.3.57.71,1.02,1.24,1.35s1.12.5,1.79.5Z"/>
    <path class="st3" d="M357.92,133.62c-.92,0-1.75-.25-2.51-.76s-1.36-1.2-1.81-2.07-.68-1.86-.68-2.96.23-2.1.69-2.97,1.08-1.55,1.86-2.04,1.66-.74,2.63-.74c.58,0,1.11.08,1.59.25s.9.41,1.26.71c.36.3.66.65.89,1.05s.38.82.43,1.27l-.49-.17v-2.88h2.2v11.1h-2.2v-2.64l.51-.15c-.08.38-.26.75-.52,1.11s-.59.68-.99.96c-.4.28-.85.51-1.33.68-.49.17-1,.25-1.53.25h0ZM358.49,131.61c.66,0,1.25-.16,1.75-.49.51-.32.91-.77,1.2-1.34.29-.57.43-1.22.43-1.96s-.15-1.36-.43-1.92c-.29-.56-.69-1.01-1.2-1.33s-1.09-.49-1.75-.49-1.22.16-1.72.49c-.5.32-.9.77-1.18,1.33-.29.56-.43,1.21-.43,1.92s.14,1.38.43,1.96c.29.57.68,1.02,1.18,1.34s1.08.49,1.72.49Z"/>
    <path class="st3" d="M366.5,133.41v-11.1h2.2v3.49l-.21-.85c.15-.54.42-1.02.79-1.46s.8-.78,1.29-1.04.99-.38,1.51-.38c.24,0,.47.02.69.06s.39.09.52.15l-.57,2.37c-.17-.07-.36-.13-.56-.18-.21-.05-.41-.07-.6-.07-.38,0-.74.07-1.09.22s-.65.35-.91.61-.47.56-.62.91c-.16.35-.23.72-.23,1.13v6.13h-2.21Z"/>
    <path class="st3" d="M378.66,133.62c-1.01,0-1.92-.25-2.72-.75s-1.43-1.18-1.89-2.05c-.47-.87-.7-1.86-.7-2.97s.23-2.1.69-2.97,1.08-1.55,1.87-2.05,1.68-.75,2.69-.75c.55,0,1.08.09,1.6.26s.98.42,1.39.72.73.63.96.99.35.72.35,1.09l-.63.04v-7.42h2.18v15.65h-2.18v-2.64h.42c0,.34-.11.67-.34,1s-.53.64-.9.92-.8.51-1.29.68c-.49.17-.98.25-1.49.25h-.01ZM378.96,131.74c.66,0,1.25-.17,1.75-.51s.91-.8,1.19-1.38.43-1.25.43-2-.14-1.41-.43-2c-.29-.58-.69-1.05-1.19-1.38-.51-.34-1.09-.51-1.75-.51s-1.25.17-1.76.51c-.51.34-.91.8-1.19,1.38-.29.59-.43,1.25-.43,2s.14,1.41.43,2c.29.58.69,1.05,1.19,1.38.51.34,1.09.51,1.76.51Z"/>
    <path class="st3" d="M390.61,133.62c-.93,0-1.77-.16-2.52-.49-.75-.32-1.37-.8-1.86-1.44l1.48-1.27c.42.49.88.85,1.38,1.07s1.07.33,1.7.33c.25,0,.49-.03.71-.1s.41-.16.57-.29c.16-.13.29-.28.37-.45.08-.18.13-.37.13-.58,0-.37-.13-.66-.4-.89-.14-.1-.36-.21-.67-.33-.3-.12-.69-.24-1.17-.37-.82-.21-1.49-.45-2.01-.72-.52-.27-.92-.57-1.21-.91-.21-.27-.37-.56-.47-.88s-.15-.67-.15-1.05c0-.47.1-.89.31-1.28.2-.39.49-.73.85-1.02.36-.29.78-.51,1.27-.67.49-.15,1-.23,1.55-.23.52,0,1.04.07,1.55.21s.99.35,1.43.61c.44.27.8.58,1.1.95l-1.25,1.37c-.27-.27-.56-.5-.88-.71-.32-.2-.64-.36-.96-.48-.32-.11-.62-.17-.89-.17-.3,0-.56.03-.8.08-.24.06-.44.14-.6.25s-.29.25-.37.42-.13.36-.13.57c.01.18.06.36.14.52.08.16.19.3.33.41.16.11.39.23.7.36s.71.25,1.18.36c.7.18,1.29.38,1.74.6s.82.47,1.09.75c.28.27.48.58.59.93.11.35.17.75.17,1.18,0,.63-.18,1.2-.54,1.7-.36.5-.84.89-1.45,1.17-.61.28-1.28.42-2.03.42l.02.07Z"/>
    <path class="st3" d="M406.89,133.62c-1.09,0-2.06-.25-2.91-.75s-1.53-1.18-2.02-2.05c-.49-.87-.74-1.86-.74-2.97s.25-2.1.74-2.97,1.17-1.55,2.02-2.05c.85-.5,1.82-.75,2.91-.75s2.03.25,2.89.75c.85.5,1.53,1.18,2.02,2.05s.74,1.86.74,2.97-.25,2.1-.74,2.97-1.17,1.55-2.02,2.05c-.85.5-1.82.75-2.89.75ZM406.89,131.63c.66,0,1.25-.17,1.78-.5.52-.33.93-.78,1.23-1.35.3-.57.44-1.22.42-1.94.01-.73-.13-1.39-.42-1.96-.3-.57-.71-1.02-1.23-1.34s-1.11-.49-1.78-.49-1.26.17-1.79.5-.94.78-1.24,1.35-.44,1.22-.42,1.94c-.01.72.13,1.36.42,1.94.3.57.71,1.02,1.24,1.35s1.12.5,1.79.5Z"/>
    <path class="st3" d="M413.38,124.5v-2.01h6.6v2.01h-6.6ZM415.16,133.41v-12.35c0-.63.14-1.2.42-1.69.28-.49.67-.88,1.16-1.16.49-.28,1.06-.42,1.71-.42.45,0,.87.08,1.27.25.39.17.71.39.95.68l-.74,1.67c-.18-.17-.38-.31-.6-.41-.22-.11-.43-.16-.62-.16-.3,0-.55.05-.75.14-.21.09-.36.23-.46.42-.1.19-.15.42-.15.69v12.35h-2.2,0Z"/>
    <path class="st3" d="M427.68,133.41v-14.8h6.03c.8,0,1.53.2,2.19.6s1.18.95,1.58,1.64.59,1.46.59,2.3-.2,1.61-.59,2.31c-.39.69-.92,1.24-1.58,1.66s-1.39.62-2.19.62h-3.74v5.67h-2.29ZM429.96,125.54h3.7c.38,0,.73-.11,1.04-.33s.56-.51.75-.87.29-.76.29-1.19-.09-.83-.29-1.18c-.19-.35-.44-.63-.75-.85-.31-.21-.66-.32-1.04-.32h-3.7v4.74Z"/>
    <path class="st3" d="M440.01,133.41v-15.65h2.18v6.83l-.38.25c.14-.49.42-.95.82-1.36s.9-.75,1.46-1.02c.56-.26,1.14-.39,1.73-.39.85,0,1.55.17,2.11.5s.99.84,1.27,1.51c.28.68.42,1.53.42,2.56v6.77h-2.18v-6.62c0-.63-.08-1.16-.25-1.58s-.43-.72-.78-.91-.79-.27-1.31-.24c-.42,0-.81.07-1.16.2s-.66.32-.92.56-.47.52-.61.83c-.15.32-.22.66-.22,1.03v6.72h-2.18Z"/>
    <path class="st3" d="M456.33,133.62c-.92,0-1.75-.25-2.51-.76s-1.36-1.2-1.81-2.07-.68-1.86-.68-2.96.23-2.1.69-2.97,1.08-1.55,1.86-2.04,1.66-.74,2.63-.74c.58,0,1.11.08,1.59.25s.9.41,1.26.71c.36.3.66.65.89,1.05s.38.82.43,1.27l-.49-.17v-2.88h2.2v11.1h-2.2v-2.64l.51-.15c-.08.38-.26.75-.52,1.11s-.59.68-.99.96c-.4.28-.85.51-1.33.68-.49.17-1,.25-1.53.25h0ZM456.9,131.61c.66,0,1.25-.16,1.75-.49.51-.32.91-.77,1.2-1.34.29-.57.43-1.22.43-1.96s-.15-1.36-.43-1.92c-.29-.56-.69-1.01-1.2-1.33s-1.09-.49-1.75-.49-1.22.16-1.72.49c-.5.32-.9.77-1.18,1.33-.29.56-.43,1.21-.43,1.92s.14,1.38.43,1.96c.29.57.68,1.02,1.18,1.34s1.08.49,1.72.49Z"/>
    <path class="st3" d="M464.92,133.41v-11.1h2.2v3.49l-.21-.85c.15-.54.42-1.02.79-1.46s.8-.78,1.29-1.04.99-.38,1.51-.38c.24,0,.47.02.69.06s.39.09.52.15l-.57,2.37c-.17-.07-.36-.13-.56-.18-.21-.05-.41-.07-.6-.07-.38,0-.74.07-1.09.22s-.65.35-.91.61-.47.56-.62.91c-.16.35-.23.72-.23,1.13v6.13h-2.21Z"/>
    <path class="st3" d="M472.87,133.41v-11.1h2.2v2.37l-.4.25c.11-.37.29-.72.54-1.06s.55-.64.91-.9c.36-.26.75-.47,1.16-.62.42-.16.84-.23,1.28-.23.63,0,1.19.11,1.67.32s.87.53,1.18.95.54.95.68,1.59l-.34-.08.15-.36c.16-.32.37-.63.65-.92.27-.29.59-.55.94-.77s.73-.4,1.12-.53.78-.19,1.16-.19c.83,0,1.52.17,2.06.51s.95.85,1.23,1.54.41,1.55.41,2.58v6.66h-2.2v-6.53c0-.63-.08-1.15-.24-1.55s-.41-.7-.73-.9c-.32-.2-.74-.3-1.25-.3-.4,0-.77.07-1.11.2-.35.13-.65.32-.9.56s-.45.52-.59.83c-.14.32-.21.67-.21,1.05v6.64h-2.2v-6.58c0-.58-.08-1.07-.25-1.47s-.42-.71-.74-.92-.72-.32-1.18-.32c-.39,0-.76.07-1.1.2s-.63.32-.89.55-.45.51-.59.82c-.14.32-.21.66-.21,1.03v6.68h-2.21Z"/>
    <path class="st3" d="M496.13,133.62c-.92,0-1.75-.25-2.51-.76s-1.36-1.2-1.81-2.07-.68-1.86-.68-2.96.23-2.1.69-2.97,1.08-1.55,1.86-2.04,1.66-.74,2.63-.74c.58,0,1.11.08,1.59.25s.9.41,1.26.71c.36.3.66.65.89,1.05s.38.82.43,1.27l-.49-.17v-2.88h2.2v11.1h-2.2v-2.64l.51-.15c-.08.38-.26.75-.52,1.11s-.59.68-.99.96c-.4.28-.85.51-1.33.68-.49.17-1,.25-1.53.25h0ZM496.7,131.61c.66,0,1.25-.16,1.75-.49.51-.32.91-.77,1.2-1.34.29-.57.43-1.22.43-1.96s-.15-1.36-.43-1.92c-.29-.56-.69-1.01-1.2-1.33s-1.09-.49-1.75-.49-1.22.16-1.72.49c-.5.32-.9.77-1.18,1.33-.29.56-.43,1.21-.43,1.92s.14,1.38.43,1.96c.29.57.68,1.02,1.18,1.34s1.08.49,1.72.49Z"/>
    <path class="st3" d="M509.43,133.62c-1.03,0-1.95-.25-2.76-.76s-1.45-1.2-1.92-2.07c-.47-.87-.71-1.85-.71-2.94s.24-2.06.71-2.94c.47-.87,1.11-1.56,1.92-2.07.81-.51,1.73-.76,2.76-.76s1.89.2,2.7.6,1.43.95,1.85,1.64l-1.21,1.48c-.23-.32-.51-.62-.87-.89-.35-.27-.73-.48-1.12-.63s-.78-.23-1.14-.23c-.68,0-1.28.17-1.81.5s-.95.79-1.26,1.36c-.31.58-.47,1.23-.47,1.95s.16,1.36.49,1.94c.32.57.75,1.03,1.29,1.36s1.13.51,1.78.51c.38,0,.75-.06,1.11-.19s.71-.32,1.05-.57.66-.56.95-.93l1.21,1.48c-.45.63-1.1,1.16-1.94,1.56s-1.71.61-2.61.61h0Z"/>
    <path class="st3" d="M517.04,138.27l2.24-5.18.02,1.73-5.54-12.52h2.54l3.47,8.16c.07.14.16.36.25.65.1.29.18.57.25.86l-.55.13c.11-.3.22-.59.33-.89.11-.3.21-.59.31-.89l2.9-8.01h2.58l-4.57,11.1-1.88,4.86h-2.35Z"/>
  </g>
</svg>
